Coordinates																																									
version=1																																									
nRows=19																																									
nColumns=42																																									
inDegrees=yes																																									
																																									
"Units are S.I. units (second, meters, Newtons, ...)"																																									
Angles are in degrees.																																									
																																									
endheader																																									
time	pelvis_tx	pelvis_ty	pelvis_tz	pelvis_tilt	pelvis_list	pelvis_rotation	hip_flexion_r	hip_adduction_r	hip_rotation_r	knee_angle_r	ankle_angle_r	subtalar_angle_r	mtp_angle_r	hip_flexion_l	hip_adduction_l	hip_rotation_l	knee_angle_l	ankle_angle_l	subtalar_angle_l	mtp_angle_l	lumbar_extension	lumbar_bending	lumbar_rotation	ground_force_vx	ground_force_vy	ground_force_vz	ground_force_px	ground_force_py	ground_force_pz	ground_force_vx	ground_force_vy	ground_force_vz	ground_force_px	ground_force_py	ground_force_pz	ground_torque_x	ground_torque_y	ground_torque_z	ground_torque_x	ground_torque_y	ground_torque_z
0.39	0.384908	0.71203	-0.242939	3.696374	-2.814941	163.520645	-14.607924	-5.430233	7.243399	-19.791214	4.49415	0	0	21.163657	-1.347176	-28.901464	-12.249236	8.630339	0	0	20.557427	-1.804146	9.816573	0	0	0	0	0	0	14.33427	147.825043	-0.015819	0.312252	-0.005748	-0.198762	0	0	0	0.000468	-0.039133	-0.000782
0.4	0.371487	0.711346	-0.242389	3.829933	-3.517298	163.503632	-13.447427	-6.195729	7.189157	-22.591435	2.653928	0	0	21.16335	-0.491992	-28.218073	-13.623897	8.555264	0	0	21.350604	-2.341801	9.997012	0	0	0	0	0	0	19.27655	173.724014	-1.338473	0.306656	-0.00584	-0.197507	0	0	0	-0.000094	0.007832	0.000157
0.41	0.358114	0.710823	-0.241829	3.923393	-4.168678	163.444809	-12.25704	-6.883422	7.258626	-25.56619	0.710978	0	0	21.077527	0.352614	-27.530782	-14.938662	8.579074	0	0	22.0667	-2.831786	10.166541	0	0	0	0	0	0	23.816111	196.93428	-2.797251	0.300321	-0.005894	-0.196003	0	0	0	-0.000966	0.080781	0.001614
0.42	0.344904	0.710546	-0.241277	3.956235	-4.722479	163.332764	-11.029526	-7.430407	7.48062	-28.696589	-1.289646	0	0	20.842684	1.155752	-26.861104	-16.12247	8.737282	0	0	22.64839	-3.234489	10.304417	0	0	0	0	0	0	27.70002	217.202759	-4.102936	0.293343	-0.005892	-0.194378	0	0	0	-0.002092	0.17487	0.003495
0.43	0.331944	0.710559	-0.240752	3.914593	-5.154955	163.152496	-9.754155	-7.808335	7.855284	-31.963284	-3.280575	0	0	20.411942	1.899319	-26.254609	-17.116183	9.040083	0	0	23.064673	-3.527095	10.404847	0	0	0	0	0	0	30.763922	234.174332	-5.066663	0.285851	-0.00584	-0.192727	0	0	0	-0.003357	0.280642	0.005609
0.44	0.319293	0.710875	-0.240275	3.790714	-5.457563	162.891586	-8.426726	-8.011142	8.363673	-35.336107	-5.175496	0	0	19.755021	2.571991	-25.767894	-17.876989	9.47523	0	0	23.304303	-3.700327	10.471488	0	0	0	0	0	0	32.897141	247.392654	-5.63352	0.277971	-0.005761	-0.191103	0	0	0	-0.004606	0.385101	0.007696
0.45	0.306982	0.711488	-0.239861	3.57923	-5.629257	162.54863	-7.05945	-8.043675	8.971932	-38.76856	-6.875418	0	0	18.854373	3.166987	-25.448677	-18.380778	10.014347	0	0	23.365556	-3.756028	10.506182	0	0	0	0	0	0	34.133762	256.503418	-5.906009	0.269764	-0.005677	-0.189505	0	0	0	-0.005678	0.474675	0.009486
0.46	0.295015	0.712393	-0.239508	3.272726	-5.672389	162.138992	-5.685969	-7.916215	9.631017	-42.198302	-8.277194	0	0	17.700094	3.683482	-25.319866	-18.621749	10.618999	0	0	23.247819	-3.706599	10.497773	0	0	0	0	0	0	34.590336	261.44043	-6.073819	0.26126	-0.005609	-0.18789	0	0	0	-0.006489	0.542495	0.010842
0.47	0.283381	0.713572	-0.239204	2.8692	-5.591042	161.692642	-4.346689	-7.638603	10.283955	-45.555094	-9.285149	0	0	16.297808	4.122697	-25.375177	-18.613138	11.247522	0	0	22.955861	-3.570012	10.421472	0	0	0	0	0	0	34.379025	262.507538	-6.29664	0.252506	-0.00556	-0.186198	0	0	0	-0.007059	0.590123	0.011794
0.48	0.272062	0.714987	-0.238932	2.391193	-5.393334	161.246429	-3.056413	-7.215849	10.877682	-48.773882	-9.82352	0	0	14.68998	4.4811	-25.584784	-18.388906	11.861464	0	0	22.516948	-3.3622	10.250814	0	0	0	0	0	0	33.618534	260.337524	-6.655649	0.243585	-0.005527	-0.184381	0	0	0	-0.00745	0.622834	0.012447
0.49	0.261043	0.716556	-0.238675	1.897818	-5.097229	160.836517	-1.780254	-6.651261	11.368791	-51.805011	-9.847931	0	0	12.9689	4.750144	-25.904829	-18.000967	12.42891	0	0	21.993634	-3.094648	9.971143	0	0	0	0	0	0	32.437244	255.796173	-7.13841	0.234646	-0.005497	-0.182429	0	0	0	-0.007726	0.645893	0.012908
0.5	0.250317	0.718158	-0.238424	1.480305	-4.735398	160.490662	-0.430655	-5.954233	11.725961	-54.61896	-9.354063	0	0	11.270156	4.921964	-26.288881	-17.511188	12.92512	0	0	21.481643	-2.777417	9.588032	0	0	0	0	0	0	30.935877	249.863739	-7.682373	0.225919	-0.005458	-0.180394	0	0	0	-0.007938	0.663591	0.013262
0.51	0.239888	0.71965	-0.238184	1.246554	-4.353916	160.222534	1.117603	-5.144625	11.932776	-57.205587	-8.380082	0	0	9.752166	4.993503	-26.698573	-16.982553	13.33338	0	0	21.095651	-2.422017	9.127277	0	0	0	0	0	0	29.179317	243.488922	-8.217002	0.217725	-0.005405	-0.178382	0	0	0	-0.008101	0.677243	0.013535
0.52	0.229754	0.720892	-0.237965	1.29592	-4.001027	160.03627	2.98944	-4.251021	11.982409	-59.562555	-7.002666	0	0	8.561698	4.966856	-27.103555	-16.470808	13.645996	0	0	20.943708	-2.041462	8.620081	0	0	0	0	0	0	27.207302	237.419144	-8.680293	0.210399	-0.00534	-0.17653	0	0	0	-0.008202	0.685726	0.013704
0.53	0.219893	0.72181	-0.237767	1.674191	-3.7082	159.940201	5.241186	-3.310443	11.861634	-61.675174	-5.326333	0	0	7.775043	4.852197	-27.470025	-16.013146	13.861958	0	0	21.081527	-1.651475	8.079789	0	0	0	0	0	0	25.052748	232.102005	-9.037797	0.204207	-0.005275	-0.174962	0	0	0	-0.008208	0.686191	0.013714
0.54	0.210248	0.722439	-0.237568	2.327016	-3.474999	159.955658	7.797056	-2.371722	11.538992	-63.503663	-3.46508	0	0	7.340751	4.673267	-27.753203	-15.618476	13.982041	0	0	21.464944	-1.274316	7.489676	0	0	0	0	0	0	22.741373	227.683319	-9.289028	0.199283	-0.005225	-0.173741	0	0	0	-0.008087	0.676065	0.013511
0.55	0.200745	0.722914	-0.237328	3.116091	-3.272356	160.111069	10.471318	-1.488584	10.973227	-64.99108	-1.527398	0	0	7.100852	4.461374	-27.905831	-15.273549	14.007869	0	0	21.964241	-0.935042	6.81419	0	0	0	0	0	0	20.290977	224.069885	-9.463552	0.195622	-0.005199	-0.172855	0	0	0	-0.007846	0.655953	0.013109
0.56	0.191321	0.723374	-0.237015	3.901089	-3.061363	160.425995	13.073003	-0.699501	10.136876	-66.083706	0.386785	0	0	6.890619	4.236351	-27.897327	-14.963119	13.94637	0	0	22.44402	-0.647378	6.0234	0	0	0	0	0	0	17.73358	221.030167	-9.607373	0.193091	-0.005206	-0.172238	0	0	0	-0.007536	0.629975	0.01259
0.57	0.181935	0.723906	-0.236622	4.599068	-2.809692	160.899155	15.481633	-0.015584	9.032929	-66.744691	2.189765	0	0	6.610821	3.996565	-27.726752	-14.682929	13.812223	0	0	22.822679	-0.406437	5.108802	0	0	0	0	0	0	15.115935	218.295135	-9.748425	0.191473	-0.005254	-0.17182	0	0	0	-0.007201	0.602038	0.012032
